# xmcd
#
# Track frame offsets:
#	150
#	15772
#	32372
#	48595
#	65007
#	79290
#	96465
#	114680
#	124912
#	133395
#	149800
#	162460
#
# Disc length: 2320 seconds
# Revision: 1
# Processed by: cddbd v1.5.2PL0 Copyright (c) Steve Scherf et al.
# Submitted via: dBpowerAMP V12.0
#
DISCID=b3090e0c
DTITLE=Alan Garcia - Music Around the World "Corsica"
DYEAR=1900
DGENRE=Country
TTITLE0=Minighola
TTITLE1=Diovislavi Regina
TTITLE2=L'ajaccien
TTITLE3=Cala D'orzu
TTITLE4=Cuandu Der Per Corti
TTITLE5=Le Rocher De St. Helene
TTITLE6=A Morte Dificone
TTITLE7=A Gendarmeria Di Serra
TTITLE8=Mazruka
TTITLE9=Air Des Muletiers
TTITLE10=La Men Tu Di Fasguani
TTITLE11=Valse
EXTD=
EXTT0=
EXTT1=
EXTT2=
EXTT3=
EXTT4=
EXTT5=
EXTT6=
EXTT7=
EXTT8=
EXTT9=
EXTT10=
EXTT11=
PLAYORDER=
